<svg width="13" height="12" viewBox="0 0 13 12" fill="none" xmlns="http://www.w3.org/2000/svg">
<path d="M4.66681 2.58341C5.08102 2.58341 5.41681 2.24763 5.41681 1.83341C5.41681 1.4192 5.08102 1.08341 4.66681 1.08341V2.58341ZM11.4167 7.83342C11.4167 7.4192 11.0809 7.08342 10.6667 7.08342C10.2525 7.08342 9.91668 7.4192 9.91668 7.83342H11.4167ZM9.93853 11.0214L9.59804 10.3531L9.93853 11.0214ZM10.5215 10.4388L9.85324 10.0983L10.5215 10.4388ZM1.47867 10.4388L0.810413 10.7793H0.810413L1.47867 10.4388ZM2.06121 11.0214L2.4017 10.3531L2.06121 11.0214ZM2.06121 1.97874L2.4017 2.64699L2.06121 1.97874ZM1.47867 2.56144L2.14692 2.90193L1.47867 2.56144ZM10.5833 4.50008C10.5833 4.91429 10.9191 5.25008 11.3333 5.25008C11.7476 5.25008 12.0833 4.91429 12.0833 4.50008H10.5833ZM11.3333 1.16675H12.0833C12.0833 0.752534 11.7476 0.416748 11.3333 0.416748V1.16675ZM8.00001 0.416748C7.5858 0.416748 7.25001 0.752534 7.25001 1.16675C7.25001 1.58096 7.5858 1.91675 8.00001 1.91675V0.416748ZM6.13635 5.30308C5.84345 5.59598 5.84345 6.07085 6.13635 6.36374C6.42924 6.65664 6.90411 6.65664 7.19701 6.36374L6.13635 5.30308ZM4.66681 1.08341H3.46681V2.58341H4.66681V1.08341ZM0.583344 3.96672V9.03338H2.08334V3.96672H0.583344ZM3.46681 11.9167H8.53347V10.4167H3.46681V11.9167ZM11.4167 9.03341V7.83342H9.91668V9.03341H11.4167ZM8.53347 11.9167C8.89447 11.9167 9.21027 11.9173 9.47018 11.8961C9.7389 11.8741 10.0131 11.8251 10.279 11.6897L9.59804 10.3531C9.57873 10.363 9.52379 10.3867 9.34797 10.4011C9.16334 10.4162 8.91921 10.4167 8.53347 10.4167V11.9167ZM9.91668 9.03341C9.91668 9.41923 9.91613 9.66344 9.90106 9.84821C9.88671 10.0242 9.86301 10.0791 9.85324 10.0983L11.1897 10.7793C11.3253 10.5132 11.3742 10.2388 11.3961 9.97011C11.4173 9.7102 11.4167 9.39433 11.4167 9.03341H9.91668ZM10.279 11.6897C10.6706 11.4901 10.9898 11.1717 11.1897 10.7793L9.85324 10.0983C9.79751 10.2076 9.70819 10.297 9.59804 10.3531L10.279 11.6897ZM0.583344 9.03338C0.583344 9.39438 0.58276 9.71024 0.604 9.97021C0.625953 10.2389 0.674895 10.5133 0.810413 10.7793L2.14692 10.0983C2.13712 10.079 2.1134 10.0241 2.09902 9.84808C2.08393 9.66335 2.08334 9.41912 2.08334 9.03338H0.583344ZM3.46681 10.4167C3.08108 10.4167 2.8368 10.4162 2.65201 10.4011C2.47593 10.3867 2.42093 10.3629 2.4017 10.3531L1.72072 11.6897C1.98671 11.8252 2.26113 11.8741 2.52987 11.8961C2.78989 11.9173 3.1058 11.9167 3.46681 11.9167V10.4167ZM0.810413 10.7793C1.01009 11.1712 1.3286 11.4899 1.72072 11.6897L2.4017 10.3531C2.29205 10.2973 2.20291 10.2081 2.14692 10.0983L0.810413 10.7793ZM3.46681 1.08341C3.10581 1.08341 2.7899 1.08283 2.52988 1.10407C2.26116 1.12602 1.98672 1.17495 1.72072 1.31048L2.4017 2.64699C2.42091 2.6372 2.47591 2.61347 2.65199 2.59909C2.83679 2.584 3.08107 2.58341 3.46681 2.58341V1.08341ZM2.08334 3.96672C2.08334 3.58097 2.08393 3.33678 2.09902 3.15209C2.11339 2.97615 2.13711 2.9212 2.14692 2.90193L0.810413 2.22095C0.674904 2.4869 0.625956 2.76122 0.604 3.02993C0.58276 3.28988 0.583344 3.60572 0.583344 3.96672H2.08334ZM1.72072 1.31048C1.32852 1.51032 1.01005 1.82914 0.810413 2.22095L2.14692 2.90193C2.20295 2.79198 2.29213 2.70282 2.4017 2.64699L1.72072 1.31048ZM12.0833 4.50008V1.16675H10.5833V4.50008H12.0833ZM11.3333 0.416748H8.00001V1.91675H11.3333V0.416748ZM7.19701 6.36374L11.8637 1.69708L10.803 0.636418L6.13635 5.30308L7.19701 6.36374Z" fill="#4D5AE8"/>
</svg>
