<svg width="24" height="23" viewBox="0 0 24 23" fill="none" xmlns="http://www.w3.org/2000/svg">
<path fill-rule="evenodd" clip-rule="evenodd" d="M20.05 3.30625C17.8938 1.15 15.0188 0 12 0C5.675 0 0.5 5.175 0.5 11.5C0.5 13.5125 1.07501 15.525 2.08126 17.25L0.5 23L6.53752 21.4187C8.26252 22.2812 10.1313 22.8562 12 22.8562C18.325 22.8562 23.5 17.6812 23.5 11.3562C23.5 8.3375 22.2063 5.4625 20.05 3.30625ZM12 20.9875C10.275 20.9875 8.55001 20.5563 7.11251 19.6938L6.82499 19.55L3.23124 20.5562L4.23751 17.1062L3.94999 16.675C2.94374 15.0938 2.51249 13.3688 2.51249 11.6438C2.51249 6.46875 6.825 2.15625 12 2.15625C14.5875 2.15625 16.8875 3.1625 18.7563 4.8875C20.625 6.75625 21.4875 9.05625 21.4875 11.6438C21.4875 16.675 17.3188 20.9875 12 20.9875ZM17.175 13.8C16.8875 13.6563 15.45 12.9375 15.1625 12.9375C14.875 12.7937 14.7312 12.7938 14.5875 13.0813C14.4437 13.3688 13.8688 13.9437 13.725 14.2312C13.5813 14.375 13.4375 14.375 13.15 14.375C12.8625 14.2312 12 13.9438 10.85 12.9375C9.98752 12.2188 9.41251 11.2125 9.26876 10.925C9.12501 10.6375 9.26877 10.4937 9.41252 10.35C9.55627 10.2063 9.7 10.0625 9.84375 9.91875C9.9875 9.775 9.98752 9.63125 10.1313 9.4875C10.275 9.34375 10.1313 9.2 10.1313 9.05625C10.1313 8.9125 9.55626 7.475 9.26876 6.9C9.12501 6.46875 8.83752 6.46875 8.69377 6.46875C8.55002 6.46875 8.40623 6.46875 8.11873 6.46875C7.97498 6.46875 7.68748 6.46875 7.39998 6.75625C7.11248 7.04375 6.39376 7.7625 6.39376 9.2C6.39376 10.6375 7.39999 11.9312 7.54374 12.2188C7.68749 12.3625 9.55623 15.3813 12.4312 16.5312C14.875 17.5375 15.3063 17.25 15.8813 17.25C16.4563 17.25 17.6063 16.5312 17.75 15.9563C18.0375 15.2375 18.0375 14.6625 17.8938 14.6625C17.75 13.9438 17.4625 13.9438 17.175 13.8Z" fill="white"/>
</svg>
