<svg width="1902" height="744" viewBox="0 0 1902 744" fill="none" xmlns="http://www.w3.org/2000/svg">
<path d="M-9.49988 19.0144C-3.30322 18.5532 2.99597 18.2456 9.39758 18.1688C53.4661 17.5281 93.9753 28.1631 130.106 38.7468C166.236 49.3561 201.855 60.0679 240.187 68.909C274.679 76.8788 311.296 83.1061 349.885 84.7206C360.179 85.1562 370.319 85.233 380.331 84.9768C409.957 85.233 439.609 78.9546 468.954 74.5469C489.823 72.6761 510.308 67.5508 530.794 72.6761C720.28 118.804 914.888 129.054 1096.69 59.8629C1124.86 49.6124 1153.03 54.7376 1183.75 57.3003C1304.1 75.2388 1419.33 80.364 1539.68 52.175C1608.82 34.2365 1672.84 11.1728 1743.84 3.66426C1766.61 1.15287 1789.98 -0.205359 1813.98 0.0252783C1847.55 0.358421 1879.94 3.25423 1911 8.45638V656.958H-9.47424V19.0144H-9.49988Z" fill="url(#paint0_radial_21_7876)"/>
<path opacity="0.05" d="M1124.53 69.1396C1087.37 70.2416 988.122 115.395 943.004 116.984C897.885 118.573 943.004 141.995 1036.42 136.665C1129.83 131.309 1124.53 69.1396 1124.53 69.1396Z" fill="#D7D7D7"/>
<path opacity="0.05" d="M502.908 93.7664C523.879 68.2169 599.904 113.396 674.47 111.192C749.01 108.988 802.246 137.049 747.73 153.117C693.214 169.185 475.714 126.876 502.908 93.7664Z" fill="#AEAEAE"/>
<g filter="url(#filter0_d_21_7876)">
<path d="M106.174 108.126C172.197 126.413 225.803 157.506 284.99 181.94C304.728 190.085 325.08 197.487 346.712 203.429C463.038 234.42 588.222 209.371 700.632 256.677C973.989 367.962 1252.47 298.399 1507.95 173.206C1536.06 159.299 1566.71 159.299 1596.38 159.914C1622.44 160.503 1648.32 162.936 1673.89 165.497C1750.64 173.181 1824.65 182.145 1892.11 147.031C1896.97 144.495 1903.4 140.679 1911 135.992V699H-9V83C28.2737 93.3217 68.5936 97.7014 106.174 108.126Z" fill="url(#paint1_radial_21_7876)"/>
</g>
<path opacity="0.05" d="M1545.32 181.149C1508.71 187.556 1416.97 246.445 1372.55 254.492C1328.13 262.538 1376.13 279.247 1467.81 260.591C1559.45 241.935 1545.32 181.149 1545.32 181.149Z" fill="#C5C5C5"/>
<path opacity="0.05" d="M440.082 259.335C474.846 218.948 662.261 252.954 715.508 282.988C768.756 313.023 910.834 312.023 926.501 340.135C942.142 368.247 681.435 385.366 613.775 354.179C546.141 323.017 391.596 315.662 440.082 259.335Z" fill="#C5C5C5"/>
<path opacity="0.05" d="M23.1391 116.673C65.5578 103.578 188.743 136.867 225.786 184.532C262.829 232.197 -42.2424 136.867 23.1391 116.673Z" fill="#C5C5C5"/>
<rect x="-10" y="391" width="1902" height="322" fill="url(#paint2_linear_21_7876)"/>
<defs>
<filter id="filter0_d_21_7876" x="-69" y="8" width="2040" height="736" filterUnits="userSpaceOnUse" color-interpolation-filters="sRGB">
<feFlood flood-opacity="0" result="BackgroundImageFix"/>
<feColorMatrix in="SourceAlpha" type="matrix" values="0 0 0 0 0 0 0 0 0 0 0 0 0 0 0 0 0 0 127 0" result="hardAlpha"/>
<feOffset dy="-15"/>
<feGaussianBlur stdDeviation="30"/>
<feComposite in2="hardAlpha" operator="out"/>
<feColorMatrix type="matrix" values="0 0 0 0 0 0 0 0 0 0 0 0 0 0 0 0 0 0 0.03 0"/>
<feBlend mode="normal" in2="BackgroundImageFix" result="effect1_dropShadow_21_7876"/>
<feBlend mode="normal" in="SourceGraphic" in2="effect1_dropShadow_21_7876" result="shape"/>
</filter>
<radialGradient id="paint0_radial_21_7876" cx="0" cy="0" r="1" gradientUnits="userSpaceOnUse" gradientTransform="translate(909.632 62.7776) rotate(88.598) scale(594.358 2467.23)">
<stop offset="0.114254" stop-color="#EFF3FF"/>
<stop offset="0.899694" stop-color="#F7F7F7"/>
</radialGradient>
<radialGradient id="paint1_radial_21_7876" cx="0" cy="0" r="1" gradientUnits="userSpaceOnUse" gradientTransform="translate(951 -392.5) rotate(91.3944) scale(1091.82 4831.94)">
<stop offset="0.114254" stop-color="#ACC2FF"/>
<stop offset="0.775985" stop-color="#F5F5F5"/>
</radialGradient>
<linearGradient id="paint2_linear_21_7876" x1="941" y1="391" x2="941" y2="713" gradientUnits="userSpaceOnUse">
<stop stop-color="white" stop-opacity="0"/>
<stop offset="1" stop-color="white"/>
</linearGradient>
</defs>
</svg>
